<?xml version="1.0"?>
<svg xmlns="http://www.w3.org/2000/svg" shape-rendering="geometricPrecision" viewBox="0 0 320 320">
  <path d="M0 320h16.5v-.5h-2.7v-13.9c0-14.9.5-21.3 2.7-28.8 3.2-10.7 11.2-19.7 21.8-26.1 18.7-11.2 35.2-17.6 65.1-27.7 6.4-2.1 10.7-8 13.3-16.5 1.1-3.7 1.6-7.5 2.1-11.7v-3.2c-14.3-17.2-22.8-38-22.8-58.8v-9.1c0-19.2.5-27.7 2.7-37.3v-1.1c3.2-13.9 10.1-24 21.9-29.9 11.2-5.9 24.5-9.6 36.8-9.6 15.5 0 34.7 6.4 44.8 14.9 7.5 7.5 12.3 17.6 14.9 31.5 2.1 9.6 2.7 20.3 2.7 36.3v4.3c0 24-10.7 47.5-25.1 63.5.5 8.5 2.7 14.9 6.4 19.2 1.1 1.6 2.7 2.7 3.7 3.7.5.5 1.1.5 1.1.5l3.7 1.6 3.2 1.1c2.1.5 4.3 1.6 6.4 2.1 10.1 3.7 20.3 7.5 29.3 11.7 6.4 2.7 12.8 5.3 18.1 8l2.1 1.1c8 4.3 14.4 7.5 18.7 11.2 14.4 11.2 21.9 40 18.7 63.5H320V0H0v320z" fill="#ececec"/>
  <path d="M282.9 261.6c-3.8-3.4-10.2-7.3-19-11.3-5.4-2.8-11.4-5.6-17.9-8.4-8.1-3.9-17.3-7.3-26-10.6l-3.8-1.7c-17.3 28.1-35.7 42.6-55.2 42.6s-39.5-14-60.6-42.1h-2.1c-26 9.6-41.1 16.3-58.4 26.9-8.6 5.6-13.5 11.8-15.7 20.7l-.5 1.2c-1.6 6.2-1.6 12.3-1.6 25.2v15.1h-7.6v.5H298c2.7-20.4-3.8-48.5-15.1-58.1z" fill="#d56d6d"/>
  <path d="M161.6 264c14.9 0 29.9-11.2 44.8-34.1l-3.2-1.1c-1.1-.5-2.1-1.1-3.7-1.6-2.1-1.6-4.3-3.2-6.4-5.9-3.7-4.3-5.9-10.1-7.5-16.5-9.1 6.9-18.7 11.2-27.7 11.2-8.5 0-19.2-5.3-29.3-14.9-.5 2.7-1.1 5.3-2.1 8-2.7 9.1-7.5 16.5-14.4 20.8 18 22.9 34.6 34.1 49.5 34.1z" fill="#d0c5b4"/>
  <path d="M287.5 256.5c-4.3-3.7-10.7-6.9-18.7-11.2l-2.1-1.1c-5.3-2.7-11.7-5.3-18.1-8-9.1-4.3-19.2-8-29.3-11.7-2.1-.5-4.3-1.6-6.4-2.1l-3.2-1.1-3.7-1.6s-.5 0-1.1-.5c-1.1-1.1-2.7-2.1-3.7-3.7-3.2-4.3-5.9-10.7-6.4-19.2 14.4-16 25.1-39.5 25.1-63.5v-4.3c0-16-.5-26.7-2.7-36.3-2.7-13.9-7.5-24-14.9-31.5-10.1-8.5-29.3-14.9-44.8-14.9-12.3 0-25.6 3.7-36.8 9.6-11.7 5.9-18.7 16-21.9 29.9v1.1C96.5 96 96 104.5 96 123.7v9.1c0 20.8 8.5 41.6 22.9 58.7v3.2c-.5 4.3-1.1 8-2.1 11.7-2.7 8.5-6.9 14.4-13.3 16.5-29.9 10.1-46.4 16.5-65.1 27.7-10.7 6.4-18.6 15.4-21.8 26.1-2.1 7.5-2.7 13.9-2.7 28.8V320H24v-15c0-12.3 0-18.1 1.6-24l.5-1.1c2.1-8.5 6.9-14.4 15.5-19.7 17.1-10.1 32-16.5 57.6-25.6h2.1c20.8 26.7 40.5 40 59.7 40s37.3-13.9 54.4-40.5l3.7 1.6c8.5 3.2 17.6 6.4 25.6 10.1 6.4 2.7 12.3 5.3 17.6 8 8.5 3.7 14.9 7.5 18.7 10.7 11.2 9.1 17.6 35.7 14.9 55.5H306c3.3-23.5-4.1-52.3-18.5-63.5zm-161.1-47.4c1.1-2.7 1.6-5.3 2.1-8 10.1 9.1 21.3 14.9 29.3 14.9 9.1 0 19.2-4.3 27.7-11.2 1.6 6.9 3.7 12.3 7.5 16.5 2.1 2.7 4.3 4.3 6.4 5.9 1.6.5 2.7 1.1 3.7 1.6l3.2 1.1c-14.9 22.9-29.9 34.1-44.8 34.1s-31.5-11.2-49.6-34.1c7-4.3 11.8-11.8 14.5-20.8zm-20.8-75.2v-9.6c5.9-9.6 15.5-26.1 20.3-40 18.1 24.5 64.5 48 82.7 30.4 0 5.3.5 11.7.5 18.1 0 19.2-6.9 37.3-18.7 52.3-10.7 12.8-23.5 20.8-33.1 20.8-7.5 0-20.3-8.5-30.9-21.3-12.8-15-20.3-33.1-20.8-50.7z" fill="#4f4f4f"/>
  <path d="M126.4 184.5c10.7 12.8 23.5 21.3 30.9 21.3 9.6 0 22.4-8 33.1-20.8 11.7-14.9 18.7-33.1 18.7-52.3 0-6.9 0-12.8-.5-18.1-18.1 17.6-65.1-5.9-82.7-30.4-4.8 14.4-14.4 30.4-20.3 40v9.6c.5 17.7 8 35.8 20.8 50.7z" fill="#d0c5b4"/>
</svg>
