<?xml version="1.0"?>
<svg xmlns="http://www.w3.org/2000/svg" viewBox="0 0 50 50">
  <path d="M25 0a25 25 0 1 0 25 25A25.028 25.028 0 0 0 25 0zm0 47.039A22.039 22.039 0 1 1 47.038 25 22.064 22.064 0 0 1 25 47.039z"/>
  <path d="M37.894 23.385h-.008l-11.481.06-.059-11.345a1.48 1.48 0 0 0-1.48-1.473h-.008a1.481 1.481 0 0 0-1.473 1.489l.059 11.346-11.344.057a1.481 1.481 0 0 0 .008 2.962h.008l11.345-.059.06 11.48A1.481 1.481 0 0 0 25 39.375h.007a1.481 1.481 0 0 0 1.473-1.489l-.059-11.48 11.479-.059a1.481 1.481 0 0 0-.008-2.962z"/>
</svg>
